<svg width="332" height="356" viewBox="0 0 332 356" fill="none" xmlns="http://www.w3.org/2000/svg">
<g clip-path="url(#clip0)">
<path d="M219.724 222.55C212.47 229.467 203.636 234.496 193.995 237.197C184.354 239.898 174.2 240.19 164.421 238.046C154.642 235.902 145.536 231.388 137.899 224.898C130.263 218.409 124.328 210.142 120.615 200.821C116.901 191.5 115.522 181.408 116.598 171.429C117.674 161.45 121.172 151.887 126.787 143.577C132.401 135.267 139.96 128.463 148.804 123.76C157.647 119.058 167.505 116.599 177.515 116.601H239.245L258.445 92.324H177.515C163.74 92.3229 150.168 95.6618 137.957 102.056C125.746 108.45 115.258 117.71 107.387 129.047C99.5159 140.383 94.495 153.46 92.7523 167.162C91.0097 180.864 92.597 194.786 97.3788 207.74C102.161 220.695 109.995 232.298 120.215 241.56C130.435 250.823 142.736 257.47 156.071 260.936C169.407 264.401 183.38 264.583 196.8 261.464C210.22 258.345 222.689 252.019 233.144 243.025L219.724 222.55Z" fill="#037A35"/>
<path d="M177.516 285.485C149.086 285.485 121.822 274.161 101.719 254.003C81.6168 233.846 70.3233 206.507 70.3233 178C70.3233 149.493 81.6168 122.154 101.719 101.997C121.822 81.8393 149.086 70.5151 177.516 70.5151H275.713L295.435 45.5952H177.516C156.485 45.597 135.759 50.6365 117.063 60.294C98.3677 69.9515 82.2432 83.9476 70.0325 101.117C57.8218 118.287 49.8781 138.133 46.8629 159.003C43.8476 179.873 45.848 201.163 52.6975 221.102C59.547 241.04 71.0474 259.049 86.2412 273.63C101.435 288.21 119.883 298.94 140.048 304.926C160.214 310.913 181.514 311.982 202.175 308.045C222.836 304.108 242.26 295.28 258.83 282.294L245.153 261.393C226.057 277.012 202.159 285.524 177.516 285.485V285.485Z" fill="#037A35"/>
<path d="M270.398 299.971C243.742 320.441 211.09 331.51 177.516 331.458C92.9947 331.458 24.4833 262.752 24.4833 178C24.4833 93.2484 92.9947 24.5501 177.516 24.5501H312.117L331.558 0H177.516C79.4784 0 0 79.6953 0 178C0 276.305 79.4784 355.992 177.516 355.992C215.86 356.056 253.185 343.614 283.858 320.542L270.398 299.971Z" fill="#037A35"/>
</g>
<defs>
<clipPath id="clip0">
<rect width="331.55" height="356" fill="white"/>
</clipPath>
</defs>
</svg>
